<svg width="270" height="50" viewBox="0 0 270 50" xmlns="http://www.w3.org/2000/svg" xmlns:xlink="http://www.w3.org/1999/xlink"><title>ANAE logo</title><defs><filter x="-50%" y="-50%" width="200%" height="200%" filterUnits="objectBoundingBox" id="a"><feOffset dx="3" in="SourceAlpha" result="shadowOffsetOuter1"/><feGaussianBlur stdDeviation="3.5" in="shadowOffsetOuter1" result="shadowBlurOuter1"/><feColorMatrix values="0 0 0 0 0 0 0 0 0 0 0 0 0 0 0 0 0 0 0.37 0" in="shadowBlurOuter1" result="shadowMatrixOuter1"/><feMerge><feMergeNode in="shadowMatrixOuter1"/><feMergeNode in="SourceGraphic"/></feMerge></filter><path id="b" d="M39.346.072H.018v27.731h78.656V.072H39.346z"/></defs><g filter="url(#a)" transform="translate(-88 -3)" fill="none" fill-rule="evenodd"><path d="M166.004 47c-21.855-21.456 10.038-23.299 5.505-34.027 11.251 11.433-7.933 15.605-6.476 22.866.486-4.444 14.49-8.995 12.79-16.364 9.713 13.87-12.79 17.989-11.819 27.525" fill="#FFF"/><g transform="translate(91 9)"><mask id="c" fill="#fff"><use xlink:href="#b"/></mask><path d="M77.109.072C74.033 5.206 56.71 14.43 64.644 23.832 65.614 12.978 84.07 8.415 77.109.071M45.601 12.35l-6.577 15.453h3.442l1.403-3.44h6.49l1.402 3.44h3.53l-6.577-15.452h-3.113zm1.513 4.055l2.039 4.976h-4.077l2.038-4.976zM6.577 12.351L0 27.803h3.442l1.403-3.44h6.489l1.403 3.44h3.53L9.69 12.351H6.577zm1.513 4.054l2.039 4.976H6.05l2.04-4.976zm23.042-3.945v9.448L23.94 12.46h-3.112v15.343h3.332V18.05l7.432 9.753h2.872V12.46h-3.332z" fill="#FFF" mask="url(#c)"/></g><path d="M189.337 36.803h11.203v-1.578h-9.471v-5.37h8.374v-1.578h-8.374V23.04h9.362V21.46h-11.094v15.342zm16.882 0h1.688v-12.58l9.909 12.58h1.381V21.461h-1.688v12.296l-9.668-12.296h-1.622v15.342zm23.567 0h1.754V23.061h5.152v-1.6h-12.058v1.6h5.152v13.742zm12.343 0h11.203v-1.578h-9.47v-5.37h8.375v-1.578h-8.376V23.04h9.362V21.46h-11.094v15.342zm16.882 0h1.732v-5.962h4.384l4.451 5.962h2.127l-4.714-6.269c2.412-.438 4.165-1.928 4.165-4.47v-.045c0-1.205-.438-2.28-1.183-3.024-.965-.965-2.478-1.534-4.363-1.534h-6.6v15.342zm1.732-7.518v-6.224h4.735c2.478 0 3.925 1.14 3.925 3.024v.044c0 1.973-1.645 3.156-3.947 3.156h-4.713zm16.311 7.518h1.732V31.39h3.727c3.267 0 6.029-1.71 6.029-5.02v-.044c0-3.025-2.28-4.865-5.744-4.865h-5.744v15.342zm1.732-6.992v-6.75h3.88c2.478 0 4.122 1.14 4.122 3.331v.044c0 2.016-1.666 3.375-4.209 3.375h-3.793zm15.105 6.992h1.732v-5.962h4.385l4.45 5.962h2.127l-4.713-6.269c2.411-.438 4.165-1.928 4.165-4.47v-.045c0-1.205-.438-2.28-1.184-3.024-.964-.965-2.476-1.534-4.362-1.534h-6.6v15.342zm1.732-7.518v-6.224h4.736c2.477 0 3.924 1.14 3.924 3.024v.044c0 1.973-1.644 3.156-3.946 3.156h-4.714zm16.465 7.518h1.732V21.461h-1.732v15.342zm13.68.22c3.048 0 5.24-1.71 5.24-4.34v-.044c0-2.345-1.578-3.595-4.998-4.34-3.376-.723-4.166-1.534-4.166-2.981v-.044c0-1.38 1.271-2.476 3.266-2.476 1.579 0 3.005.503 4.43 1.665l1.008-1.337c-1.557-1.25-3.157-1.885-5.394-1.885-2.915 0-5.042 1.776-5.042 4.186v.044c0 2.521 1.622 3.66 5.152 4.428 3.223.68 3.99 1.49 3.99 2.915v.044c0 1.512-1.359 2.608-3.42 2.608-2.126 0-3.661-.723-5.261-2.17l-1.075 1.272c1.842 1.643 3.837 2.455 6.27 2.455zm10.963-.22h11.202v-1.578h-9.47v-5.37h8.374v-1.578h-8.375V23.04h9.362V21.46h-11.093v15.342z" fill="#FFF"/></g></svg>