<svg xmlns="http://www.w3.org/2000/svg" width="24" height="20.85" viewBox="0 0 24 20.85">
  <g id="download" transform="translate(0 -1)">
    <path id="Path_585" data-name="Path 585" d="M.75,9.9c.414,0,.75.224.75.5v2.5c0,.552.672,1,1.5,1H21c.828,0,1.5-.448,1.5-1V10.4c0-.276.336-.5.75-.5s.75.224.75.5v2.5c0,1.1-1.343,2-3,2H3c-1.657,0-3-.9-3-2V10.4c0-.276.336-.5.75-.5Z" transform="translate(0 6.95)" fill="#1e2e49"/>
    <path id="Path_586" data-name="Path 586" d="M7.646,11.854a.5.5,0,0,0,.708,0l3-3a.5.5,0,1,0-.708-.708L8.5,10.293V1.5a.5.5,0,0,0-1,0v8.793L5.354,8.146a.5.5,0,1,0-.708.708Z" transform="translate(4)" fill="#1e2e49"/>
  </g>
</svg>
