<svg xmlns="http://www.w3.org/2000/svg" viewBox="0 0 326.34 494.9"><defs><style>.cls-1{isolation:isolate;}.cls-2{fill:#009ade;}.cls-3{fill:#d2451e;}.cls-4,.cls-6{fill:#fff;}.cls-4{opacity:0.3;}.cls-5{mix-blend-mode:multiply;opacity:0.5;}.cls-7{fill:#54565a;}</style></defs><g class="cls-1"><g id="Layer_1" data-name="Layer 1"><rect class="cls-2" x="38.17" y="0.12" width="250" height="200"/><polygon class="cls-3" points="38.17 0 38.17 200 288.17 0 38.17 0"/><path class="cls-4" d="M161,155.16a68.5,68.5,0,1,1,68.5-68.5A68.57,68.57,0,0,1,161,155.16Zm0-133a64.5,64.5,0,1,0,64.5,64.5A64.57,64.57,0,0,0,161,22.16Z" transform="translate(-5.6 -1.49)"/><g class="cls-5"><path class="cls-2" d="M207,92.42a20,20,0,0,0-12.28-10.07c-5.49-1.57-10.73-1.39-15,.46a36.47,36.47,0,0,0-3.8,1.87l2-16.51h29.3V58H172.45l-4.1,34.82,4.49,1.74.46-.58a13.83,13.83,0,0,1,5.33-4.3,16.18,16.18,0,0,1,6.47-1.29,10.8,10.8,0,0,1,8.72,3.89,15.15,15.15,0,0,1,3.37,10.08,28.62,28.62,0,0,1-.95,8.05,17.22,17.22,0,0,1-2.8,5.54,10.44,10.44,0,0,1-4,3.23,12.3,12.3,0,0,1-5.14,1.1,17.64,17.64,0,0,1-3.8-.36,16.57,16.57,0,0,1-2.73-.84,12.82,12.82,0,0,1-1.83-1l-.61-.43c.16-.67.37-1.55.62-2.65a17.63,17.63,0,0,0,.53-3.9,5.35,5.35,0,0,0-1.74-3.85,6.67,6.67,0,0,0-4.91-1.74,5,5,0,0,0-4.37,2.2,8.26,8.26,0,0,0-1.31,4.63c0,3.71,2,7,6,9.69a24.51,24.51,0,0,0,14.16,4c7.15,0,13.15-2.26,17.82-6.71a22.58,22.58,0,0,0,7.06-17A21.07,21.07,0,0,0,207,92.42Z" transform="translate(-5.6 -1.49)"/><path class="cls-2" d="M128.48,93.86c.93-.63,2-1.27,3.11-1.91,2.26-1.28,4.73-2.52,7.36-3.7,4.54-2,7.82-3.55,10-4.68a25.24,25.24,0,0,0,5.93-4.18,13.7,13.7,0,0,0,3.44-5.25,19.2,19.2,0,0,0,1-6.44,14.41,14.41,0,0,0-5.93-12c-3.86-2.92-9.09-4.4-15.56-4.4a25.63,25.63,0,0,0-8.37,1.34A21.16,21.16,0,0,0,123,56.15a17,17,0,0,0-4.19,4.9,11.32,11.32,0,0,0-1.5,5.47,7.75,7.75,0,0,0,1.45,4.87,5.21,5.21,0,0,0,4.32,2,7,7,0,0,0,5-1.62,5.15,5.15,0,0,0,1.77-3.83,18.44,18.44,0,0,0-.51-4.18c-.28-1.16-.51-2.17-.71-3a8.1,8.1,0,0,1,3.33-2.54,12.94,12.94,0,0,1,5.24-1.08,10.67,10.67,0,0,1,7.25,2.44c1.81,1.58,2.73,4.16,2.73,7.66a21.41,21.41,0,0,1-.6,5.8A10.5,10.5,0,0,1,145,76.19a16.86,16.86,0,0,1-3.36,3.43,44.06,44.06,0,0,1-5.45,3.31c-2.16,1.15-4.13,2.24-5.86,3.23s-3.23,1.91-4.48,2.75c-2,1.38-3.81,2.68-5.29,3.87A28.1,28.1,0,0,0,117,96.1l-.24.28V104h45V93.86Z" transform="translate(-5.6 -1.49)"/></g><path class="cls-6" d="M205,90.42a20,20,0,0,0-12.28-10.07c-5.49-1.57-10.74-1.39-15,.46a36.47,36.47,0,0,0-3.8,1.87l2-16.51h29.3V56H170.45l-4.1,34.82,4.49,1.74.46-.58a13.83,13.83,0,0,1,5.33-4.3,16.18,16.18,0,0,1,6.47-1.29,10.8,10.8,0,0,1,8.72,3.89,15.15,15.15,0,0,1,3.37,10.08,28.62,28.62,0,0,1-.95,8.05,17.22,17.22,0,0,1-2.8,5.54,10.44,10.44,0,0,1-4,3.23,12.3,12.3,0,0,1-5.14,1.1,17.64,17.64,0,0,1-3.8-.36,16.57,16.57,0,0,1-2.73-.84,12.82,12.82,0,0,1-1.83-1l-.61-.43c.16-.67.37-1.55.62-2.65a17.63,17.63,0,0,0,.53-3.9,5.35,5.35,0,0,0-1.74-3.85,6.67,6.67,0,0,0-4.91-1.74,5,5,0,0,0-4.37,2.2,8.26,8.26,0,0,0-1.31,4.63c0,3.71,2,7,6,9.69a24.51,24.51,0,0,0,14.16,4c7.15,0,13.15-2.26,17.82-6.71a22.58,22.58,0,0,0,7.06-17A21.07,21.07,0,0,0,205,90.42Z" transform="translate(-5.6 -1.49)"/><path class="cls-6" d="M126.48,91.86c.93-.63,2-1.27,3.11-1.91,2.26-1.28,4.73-2.52,7.36-3.7,4.54-2,7.82-3.55,10-4.68a25.24,25.24,0,0,0,5.93-4.18,13.7,13.7,0,0,0,3.44-5.25,19.2,19.2,0,0,0,1-6.44,14.41,14.41,0,0,0-5.93-12c-3.86-2.92-9.09-4.4-15.56-4.4a25.63,25.63,0,0,0-8.37,1.34A21.16,21.16,0,0,0,121,54.15a17,17,0,0,0-4.19,4.9,11.32,11.32,0,0,0-1.5,5.47,7.75,7.75,0,0,0,1.45,4.87,5.21,5.21,0,0,0,4.32,2,7,7,0,0,0,5-1.62,5.15,5.15,0,0,0,1.77-3.83,18.44,18.44,0,0,0-.51-4.18c-.28-1.16-.51-2.17-.71-3a8.1,8.1,0,0,1,3.33-2.54,12.94,12.94,0,0,1,5.24-1.08,10.67,10.67,0,0,1,7.25,2.44c1.81,1.58,2.73,4.16,2.73,7.66a21.41,21.41,0,0,1-.6,5.8A10.5,10.5,0,0,1,143,74.19a16.86,16.86,0,0,1-3.36,3.43,44.06,44.06,0,0,1-5.45,3.31c-2.16,1.15-4.13,2.24-5.86,3.23s-3.23,1.91-4.48,2.75c-2,1.38-3.81,2.68-5.29,3.87A28.1,28.1,0,0,0,115,94.1l-.24.28V102h45V91.86Z" transform="translate(-5.6 -1.49)"/><path class="cls-6" d="M214.87,182.93c-.19,0-.47,0-.86-.1a4.14,4.14,0,0,1-.83-.19.93.93,0,0,1-.43-.4,1.23,1.23,0,0,1-.15-.61v-5.79c0-.45,0-1,0-1.52s0-1.07.06-1.49h-.82a3.25,3.25,0,0,1-1.19.84,4.44,4.44,0,0,1-1.89.39h-.54v.82h2.43v6.86a1.11,1.11,0,0,1-.16.66.9.9,0,0,1-.46.31,5.77,5.77,0,0,1-.86.14l-.91.08v.69h6.58ZM204,181.88h-7.51a8.29,8.29,0,0,1,1.2-.8c.48-.28,1-.54,1.58-.8.95-.42,1.66-.75,2.12-1a5.05,5.05,0,0,0,1.21-.85,2.69,2.69,0,0,0,.68-1,3.85,3.85,0,0,0,.21-1.3,2.84,2.84,0,0,0-1.18-2.39,5.15,5.15,0,0,0-3.18-.89,5.28,5.28,0,0,0-1.71.27,4.43,4.43,0,0,0-1.33.72,3.29,3.29,0,0,0-.83,1,2.14,2.14,0,0,0-.3,1.06,1.38,1.38,0,0,0,.27.9.87.87,0,0,0,.75.34,1.29,1.29,0,0,0,.91-.29.86.86,0,0,0,.31-.66,4.18,4.18,0,0,0-.1-.84l-.18-.74a2,2,0,0,1,.85-.69,2.91,2.91,0,0,1,1.21-.25,2.48,2.48,0,0,1,1.68.57,2.28,2.28,0,0,1,.65,1.79,4.83,4.83,0,0,1-.14,1.3,2.38,2.38,0,0,1-.36.75,3.7,3.7,0,0,1-.76.77,8.5,8.5,0,0,1-1.18.72l-1.24.69c-.37.21-.68.4-.94.57-.43.3-.8.57-1.11.82a5.12,5.12,0,0,0-.74.68v1.33H204Zm-16.16.05a2.44,2.44,0,0,1-2.21,1.34,2.41,2.41,0,0,1-2.2-1.34,7.05,7.05,0,0,1-.77-3.55,6.88,6.88,0,0,1,.8-3.61,2.49,2.49,0,0,1,4.35,0,6.88,6.88,0,0,1,.8,3.61,7.16,7.16,0,0,1-.77,3.55m.09-8.65a5.35,5.35,0,0,0-2.29-.45,5.56,5.56,0,0,0-2.26.44,4.26,4.26,0,0,0-1.61,1.2,5.09,5.09,0,0,0-1,1.77,6.92,6.92,0,0,0-.31,2.14,7.4,7.4,0,0,0,.32,2.2,5,5,0,0,0,1,1.78,4.15,4.15,0,0,0,1.6,1.15,5.71,5.71,0,0,0,2.25.42,5.8,5.8,0,0,0,2.09-.36,4.54,4.54,0,0,0,1.62-1.07,4.83,4.83,0,0,0,1-1.74,6.83,6.83,0,0,0,.38-2.38,7.44,7.44,0,0,0-.3-2.12,5,5,0,0,0-.94-1.76,4.51,4.51,0,0,0-1.59-1.22m-11.38,8.6h-7.51a8.29,8.29,0,0,1,1.2-.8c.49-.28,1-.54,1.58-.8,1-.42,1.66-.75,2.12-1a4.86,4.86,0,0,0,1.21-.85,2.69,2.69,0,0,0,.68-1,3.85,3.85,0,0,0,.21-1.3,2.84,2.84,0,0,0-1.18-2.39,5.9,5.9,0,0,0-4.88-.62,4.31,4.31,0,0,0-1.33.72,3.19,3.19,0,0,0-.84,1,2.14,2.14,0,0,0-.3,1.06,1.38,1.38,0,0,0,.27.9.87.87,0,0,0,.75.34,1.29,1.29,0,0,0,.91-.29.86.86,0,0,0,.31-.66,3.56,3.56,0,0,0-.1-.84c-.07-.29-.13-.53-.17-.74a1.91,1.91,0,0,1,.85-.69,2.87,2.87,0,0,1,1.2-.25,2.48,2.48,0,0,1,1.68.57,2.28,2.28,0,0,1,.65,1.79,4.9,4.9,0,0,1-.13,1.3,2.62,2.62,0,0,1-.37.75,3.66,3.66,0,0,1-.75.77,8.72,8.72,0,0,1-1.19.72l-1.24.69c-.36.21-.68.4-.94.57-.43.3-.8.57-1.11.82a5,5,0,0,0-.73.68v1.33h9.15Zm-13.06-4.33H157.7v1.54h5.82Zm-12.3,4.6a2.17,2.17,0,0,1-1.87,1,2.23,2.23,0,0,1-2-1.29,7.17,7.17,0,0,1-.75-3.58c0-.16,0-.39,0-.67s0-.46,0-.54a3.6,3.6,0,0,1,1.22-.92,3.4,3.4,0,0,1,1.36-.27,2.35,2.35,0,0,1,2,1,4.14,4.14,0,0,1,.72,2.54,4.68,4.68,0,0,1-.71,2.77M152.9,176a3.7,3.7,0,0,0-2.79-1.25,5,5,0,0,0-1.73.31,5.3,5.3,0,0,0-1.66,1,7.46,7.46,0,0,1,1.5-3.5,6.6,6.6,0,0,1,3.27-2.13l.88-.16-.17-.88a8.48,8.48,0,0,0-7.64,8.75,7.88,7.88,0,0,0,.34,2.41,5.22,5.22,0,0,0,1,1.81,4.13,4.13,0,0,0,1.49,1.13,4.66,4.66,0,0,0,2,.4,4.84,4.84,0,0,0,1.8-.34,4.56,4.56,0,0,0,1.57-1.05,4.66,4.66,0,0,0,1-1.51,5,5,0,0,0,.36-1.9A4.42,4.42,0,0,0,152.9,176m-14.43,2.86c0,.13,0,.24,0,.33a2.63,2.63,0,0,1,0,.33,1.18,1.18,0,0,0,0,.16,3.57,3.57,0,0,1-1.18.89,3.4,3.4,0,0,1-1.4.28,2.33,2.33,0,0,1-1.95-1,4.12,4.12,0,0,1-.72-2.54,4.66,4.66,0,0,1,.71-2.76,2.19,2.19,0,0,1,3.84.3,7.14,7.14,0,0,1,.75,3.58c0,.13,0,.26,0,.39m.78-4.49a4.3,4.3,0,0,0-3.47-1.55,4.51,4.51,0,0,0-3.36,1.39,4.64,4.64,0,0,0-1.36,3.4,4.35,4.35,0,0,0,1.17,3.12A3.7,3.7,0,0,0,135,182a4.61,4.61,0,0,0,1.79-.32,5.62,5.62,0,0,0,1.6-1,7,7,0,0,1-1.52,3.5,6.93,6.93,0,0,1-3.28,2l-.88.16.17.88a9.54,9.54,0,0,0,3.18-1,8.11,8.11,0,0,0,2.41-1.85,7.93,7.93,0,0,0,1.54-2.63,9.29,9.29,0,0,0,.54-3.19,6.35,6.35,0,0,0-1.3-4.21m-14.1,4.49c0,.13,0,.24,0,.33a3,3,0,0,1,0,.33c0,.08,0,.13,0,.16a3.47,3.47,0,0,1-1.18.89,3.37,3.37,0,0,1-1.4.28,2.33,2.33,0,0,1-2-1,4.12,4.12,0,0,1-.72-2.54,4.66,4.66,0,0,1,.71-2.76,2.19,2.19,0,0,1,3.84.3,7.14,7.14,0,0,1,.75,3.58c0,.13,0,.26,0,.39m.79-4.49a4.32,4.32,0,0,0-3.48-1.55,4.51,4.51,0,0,0-3.36,1.39,4.64,4.64,0,0,0-1.36,3.4,4.35,4.35,0,0,0,1.17,3.12,3.7,3.7,0,0,0,2.77,1.24,4.69,4.69,0,0,0,1.8-.32,5.58,5.58,0,0,0,1.59-1,6.45,6.45,0,0,1-4.8,5.54l-.88.16.17.88a9.4,9.4,0,0,0,3.18-1,8.11,8.11,0,0,0,2.41-1.85,7.77,7.77,0,0,0,1.54-2.63,9.29,9.29,0,0,0,.54-3.19,6.4,6.4,0,0,0-1.29-4.21m-11.72,8.55c-.18,0-.47,0-.85-.1a3.82,3.82,0,0,1-.83-.19,1,1,0,0,1-.44-.4,1.23,1.23,0,0,1-.15-.61v-5.79c0-.45,0-1,0-1.52s0-1.07.06-1.49h-.81a3.3,3.3,0,0,1-1.2.84,4.44,4.44,0,0,1-1.89.39h-.54v.82H110v6.86a1.11,1.11,0,0,1-.17.66.86.86,0,0,1-.46.31,5.82,5.82,0,0,1-.85.14l-.92.08v.69h6.58Z" transform="translate(-5.6 -1.49)"/><path class="cls-6" d="M235.41,163.63a11.46,11.46,0,0,0,3.62-1.9,8.07,8.07,0,0,0,2.27-2.8,8.11,8.11,0,0,0-.63-8.29,9.82,9.82,0,0,0-4.32-3c-.78-.3-1.68-.61-2.68-.94s-2-.65-3-1a10,10,0,0,1-3.63-1.86,3.5,3.5,0,0,1-1.16-2.73,3.8,3.8,0,0,1,1.34-3,5,5,0,0,1,3.45-1.19,6.11,6.11,0,0,1,2.94.67,7.82,7.82,0,0,1,2.21,1.82,13.57,13.57,0,0,1,1.68,2.66c.52,1.07,1,2.11,1.38,3.13h1.68l-.16-9.48h-1.7l-1.19,1.18a17.8,17.8,0,0,0-3.18-1.29,14.06,14.06,0,0,0-4.32-.65,13.25,13.25,0,0,0-4.39.71,10,10,0,0,0-3.31,1.82,8.31,8.31,0,0,0-2,2.69,7.3,7.3,0,0,0-.71,3.13A8.38,8.38,0,0,0,221,148a8.62,8.62,0,0,0,4.16,3.19c.81.32,1.68.62,2.6.93l3,1a10,10,0,0,1,3.73,1.91,3.59,3.59,0,0,1,1.21,2.74,4.3,4.3,0,0,1-1.42,3.28,5.84,5.84,0,0,1-4.09,1.3,7,7,0,0,1-3.45-.82,10.48,10.48,0,0,1-2.67-2.14,15,15,0,0,1-2-2.85,25.6,25.6,0,0,1-1.45-3h-1.68l.25,10h1.67l1.35-1.37a17,17,0,0,0,3.73,1.5,16.81,16.81,0,0,0,4.74.64,15.41,15.41,0,0,0,4.8-.67m-35.45-16a6.23,6.23,0,0,1-4.46,1.5H194V137.54h1.55a6.78,6.78,0,0,1,4.43,1.28,5,5,0,0,1,1.56,4.06q0,3.27-1.59,4.78M214.88,162c-.2,0-.53,0-1-.12a7.36,7.36,0,0,1-1.15-.24,4.75,4.75,0,0,1-1.85-1.36c-.69-.73-1.25-1.36-1.65-1.87q-1.92-2.35-3.69-4.64c-1.18-1.51-2.22-2.84-3.1-4a11.19,11.19,0,0,0,5.1-2.77,6.56,6.56,0,0,0,1.67-4.69,5.39,5.39,0,0,0-2.71-4.94q-2.72-1.63-7.94-1.64H183v1.53c.32.05.77.14,1.34.26a8,8,0,0,1,1.48.43,1.83,1.83,0,0,1,1,.82,2.69,2.69,0,0,1,.22,1.17v19.6a2.57,2.57,0,0,1-.26,1.22,1.92,1.92,0,0,1-1,.8,6.14,6.14,0,0,1-1.33.26L183,162v1.52h14.82V162c-.38,0-.84-.12-1.36-.23a7.43,7.43,0,0,1-1.17-.32,2.05,2.05,0,0,1-1-.82,2.59,2.59,0,0,1-.26-1.2V151h1.07q2.71,3.3,4.55,5.8c1.22,1.67,2.75,3.92,4.59,6.73h10.66Zm-58.74-9.71,4-10.05,4,10.05ZM178.72,162a8.92,8.92,0,0,1-1.31-.2,4.24,4.24,0,0,1-1.27-.47,4.29,4.29,0,0,1-1.12-.91,4.4,4.4,0,0,1-.64-1.07q-1.53-3.6-3.7-9.08t-6-14.92h-3.92l-5,12.18q-2.28,5.52-4.55,11a6.26,6.26,0,0,1-.93,1.63,5.07,5.07,0,0,1-1.36,1.15,3.85,3.85,0,0,1-1.29.46,11.25,11.25,0,0,1-1.45.21v1.52h11.39V162a10.41,10.41,0,0,1-3.16-.64c-.63-.29-1-.65-1-1.07a5.06,5.06,0,0,1,.07-.68,10.14,10.14,0,0,1,.44-1.59q.29-.84.69-1.92c.27-.71.51-1.34.73-1.88h9.59L167.3,160a2.59,2.59,0,0,1,.17.53,2.36,2.36,0,0,1,0,.35c0,.3-.48.55-1.43.76a18.9,18.9,0,0,1-2.48.38v1.52h15.13Zm-38.44-26.26H115.65v1.53c.31,0,.77.12,1.39.26a6.89,6.89,0,0,1,1.43.43,1.93,1.93,0,0,1,1,.83,2.61,2.61,0,0,1,.22,1.16v19.6a2.57,2.57,0,0,1-.26,1.22,1.88,1.88,0,0,1-1,.8,6.5,6.5,0,0,1-1.33.27c-.63.08-1.13.13-1.49.16v1.52h26l.53-8.65H140.8a20.58,20.58,0,0,1-1.54,3,16.19,16.19,0,0,1-2.12,2.92,2.22,2.22,0,0,1-1.06.57,11.36,11.36,0,0,1-1.54.3,15.59,15.59,0,0,1-1.68.11c-.64,0-1.19,0-1.65,0a19.8,19.8,0,0,1-2.32-.11,2.94,2.94,0,0,1-1.34-.49,2,2,0,0,1-.69-1.13,8.09,8.09,0,0,1-.19-2v-8h2.86a6.9,6.9,0,0,1,2,.26,3.37,3.37,0,0,1,1.53,1A5.59,5.59,0,0,1,134,153a10,10,0,0,1,.6,2.07h1.49V143.45H134.6a9.07,9.07,0,0,1-.6,2,5,5,0,0,1-.91,1.59,3.76,3.76,0,0,1-1.6,1,7.05,7.05,0,0,1-2,.25h-2.86v-10.7h4c.46,0,1,0,1.73,0a8.77,8.77,0,0,1,1.64.17,5.34,5.34,0,0,1,2.76,1.91,10.4,10.4,0,0,1,2,3.2h1.49Zm-28.68,0H101.3v1.53a8.7,8.7,0,0,1,2.65.45,1.13,1.13,0,0,1,.81,1,9.55,9.55,0,0,1-1.39,2.86q-1.38,2.34-5.1,8.23c-1.2-2-2.22-3.74-3.08-5.22s-1.5-2.66-2-3.5-.81-1.57-1-2a2.92,2.92,0,0,1-.29-.86c0-.29.26-.51.76-.68a13,13,0,0,1,3-.3v-1.53H79.75v1.53a9.94,9.94,0,0,1,1.36.2,4.27,4.27,0,0,1,1.28.45A7.27,7.27,0,0,1,83.77,139a9,9,0,0,1,1.34,1.74q1.27,2.07,2.68,4.44t2.92,5l.86,1.5a6.77,6.77,0,0,1,.47.95,3,3,0,0,1,.14.82c0,.33,0,.71,0,1.14v4.89a2.67,2.67,0,0,1-.27,1.26,1.84,1.84,0,0,1-1,.84,7.08,7.08,0,0,1-1.43.27c-.69.08-1.22.13-1.58.16v1.52h15.49V162a15.33,15.33,0,0,1-1.59-.27,10.07,10.07,0,0,1-1.41-.36,2,2,0,0,1-1-.86,2.79,2.79,0,0,1-.26-1.23v-3.94a13.45,13.45,0,0,1,.24-3.08,10.17,10.17,0,0,1,1.32-2.56q1.65-2.62,3-4.8t2.67-4a17.12,17.12,0,0,1,1.28-1.63,6,6,0,0,1,1.49-1.21,5.25,5.25,0,0,1,1.12-.48,6.84,6.84,0,0,1,1.29-.26Z" transform="translate(-5.6 -1.49)"/><rect class="cls-7" x="195.76" y="233.85" width="22.71" height="124.97"/><polygon class="cls-7" points="304.15 233.85 304.15 312.83 252.07 233.85 231.31 233.85 231.31 358.83 253.67 358.83 253.67 277.4 307.33 358.83 326.34 358.83 326.34 233.85 304.15 233.85"/><path class="cls-7" d="M116.57,296.78c0-17.86-5.47-34-15.4-45.46a52,52,0,0,0-39.91-17.9,52.31,52.31,0,0,0-40.15,18C11.11,263,5.6,279.19,5.6,297.13v1.75c0,17.87,5.47,34,15.4,45.46a51.94,51.94,0,0,0,39.91,17.91,52.28,52.28,0,0,0,40.15-18c10-11.53,15.51-27.76,15.51-45.71ZM29,297.13c0-25.46,12.81-42.57,31.89-42.57s32.25,17.58,32.25,42.75v1.22c0,25.47-12.82,42.58-31.9,42.58S29,323.53,29,298.36Z" transform="translate(-5.6 -1.49)"/><path class="cls-7" d="M163.37,321c0,12.73-5.22,19.46-15.08,19.46-7,0-12.45-3.21-18.13-10.73l-.87-1.15-14.42,15.79.57.79c7.82,10.83,19.67,16.79,33.37,16.79,11.1,0,20.41-3.45,26.93-10,7.1-6.91,10.69-17.1,10.69-30.28v-86.3H163.37Z" transform="translate(-5.6 -1.49)"/><path class="cls-2" d="M229.77,443.48A11,11,0,0,0,237,440.8v-7.35h-7.34v3.22h3.75v2.41a5.92,5.92,0,0,1-3.51,1,5.06,5.06,0,0,1-5.11-5.37v0a5.08,5.08,0,0,1,4.85-5.27,6.22,6.22,0,0,1,4.42,1.72l2.34-2.83a9.27,9.27,0,0,0-6.64-2.32,8.68,8.68,0,0,0-8.86,8.74v0a8.46,8.46,0,0,0,8.88,8.7m-26.49-.29H207V432.44l8.19,10.75h3.16V426.28h-3.67v10.41l-7.92-10.41h-3.43Zm-7.22,0h3.72V426.28h-3.72Zm-8.88.24c3.64,0,6.2-1.89,6.2-5.24v-.05c0-2.95-1.93-4.18-5.36-5.07-2.92-.75-3.65-1.11-3.65-2.22v-.05c0-.82.75-1.47,2.18-1.47a7.89,7.89,0,0,1,4.39,1.66l1.93-2.8A9.74,9.74,0,0,0,186.6,426c-3.46,0-5.92,2-5.92,5.1v0c0,3.36,2.2,4.3,5.6,5.17,2.83.73,3.41,1.21,3.41,2.15v.05c0,1-.92,1.59-2.44,1.59a7.74,7.74,0,0,1-5.05-2.05l-2.2,2.63a10.79,10.79,0,0,0,7.18,2.71m-19-8.94v-4.85h3.69c1.81,0,2.92.82,2.92,2.41v.05c0,1.43-1,2.39-2.85,2.39Zm-3.72,8.7h3.72v-5.41h2.92l3.62,5.41H179l-4.13-6a5.25,5.25,0,0,0,3.62-5.24v-.05a5.31,5.31,0,0,0-1.45-3.86,6.72,6.72,0,0,0-4.92-1.72h-7.73Zm-10.48.26c4.54,0,7.41-2.51,7.41-7.63v-9.54h-3.72V436c0,2.68-1.37,4-3.64,4s-3.65-1.42-3.65-4.17v-9.57h-3.72v9.66c0,5,2.78,7.51,7.32,7.51m-25.41-.26h3.67V432.44l8.19,10.75h3.16V426.28h-3.67v10.41L132,426.28h-3.43Zm-24.87,0h3.67V432.44l8.19,10.75h3.16V426.28H115v10.41l-7.92-10.41h-3.43Zm-7.22,0h3.72V426.28H96.45ZM81,443.43c3.65,0,6.21-1.89,6.21-5.24v-.05c0-2.95-1.93-4.18-5.36-5.07-2.92-.75-3.65-1.11-3.65-2.22v-.05c0-.82.75-1.47,2.18-1.47A7.91,7.91,0,0,1,84.81,431l1.93-2.8A9.75,9.75,0,0,0,80.46,426c-3.45,0-5.91,2-5.91,5.1v0c0,3.36,2.19,4.3,5.6,5.17,2.83.73,3.41,1.21,3.41,2.15v.05c0,1-.92,1.59-2.44,1.59a7.72,7.72,0,0,1-5.05-2.05l-2.2,2.63A10.77,10.77,0,0,0,81,443.43m-21.46-.24H72.45v-3.31H63.27v-3.55h8V433h-8v-3.43h9.06v-3.31H59.58Zm-10.49.26c4.55,0,7.42-2.51,7.42-7.63v-9.54H52.79V436c0,2.68-1.38,4-3.65,4s-3.64-1.42-3.64-4.17v-9.57H41.78v9.66c0,5,2.78,7.51,7.31,7.51m-15.76,0c3.64,0,6.2-1.89,6.2-5.24v-.05c0-2.95-1.93-4.18-5.36-5.07-2.92-.75-3.65-1.11-3.65-2.22v-.05c0-.82.75-1.47,2.18-1.47A7.89,7.89,0,0,1,37.09,431l1.93-2.8A9.74,9.74,0,0,0,32.75,426c-3.46,0-5.92,2-5.92,5.1v0c0,3.36,2.2,4.3,5.6,5.17,2.83.73,3.41,1.21,3.41,2.15v.05c0,1-.92,1.59-2.44,1.59a7.74,7.74,0,0,1-5-2.05l-2.2,2.63a10.79,10.79,0,0,0,7.18,2.71m-14.49,0c3.64,0,6.2-1.89,6.2-5.24v-.05c0-2.95-1.93-4.18-5.36-5.07C16.76,432.32,16,432,16,430.85v-.05c0-.82.75-1.47,2.18-1.47A7.89,7.89,0,0,1,22.6,431l1.94-2.8A9.79,9.79,0,0,0,18.26,426c-3.46,0-5.92,2-5.92,5.1v0c0,3.36,2.2,4.3,5.6,5.17,2.83.73,3.41,1.21,3.41,2.15v.05c0,1-.92,1.59-2.44,1.59a7.74,7.74,0,0,1-5.05-2.05l-2.2,2.63a10.79,10.79,0,0,0,7.18,2.71M5.6,443.19H9.32V426.28H5.6Z" transform="translate(-5.6 -1.49)"/><path class="cls-7" d="M322.61,472.41h1.47v-5.63A2.89,2.89,0,0,1,327,463.7c1.73,0,2.72,1.14,2.72,3v5.74h1.46v-6.1a3.59,3.59,0,0,0-3.76-3.94,3.72,3.72,0,0,0-3.36,1.92v-1.71h-1.47Zm-7.41-1c-1.33,0-2.47-.73-2.47-2v0c0-1.23,1-2,2.87-2a10.19,10.19,0,0,1,2.89.42v.95c0,1.55-1.48,2.66-3.29,2.66m-.28,1.15a4.27,4.27,0,0,0,3.55-1.69v1.49h1.41v-6a3.87,3.87,0,0,0-1-2.87,4.32,4.32,0,0,0-3.17-1.08,8,8,0,0,0-3.57.82l.43,1.19a7,7,0,0,1,3-.72c1.84,0,2.92.91,2.92,2.68v.34a10.66,10.66,0,0,0-3-.42c-2.49,0-4.2,1.11-4.2,3.18v0c0,2,1.84,3.05,3.67,3.05m-9,0a5,5,0,0,0,4-1.9l-.93-.87a4,4,0,0,1-3,1.46,3.66,3.66,0,0,1-3.61-3.82v0a3.62,3.62,0,0,1,3.51-3.8,4,4,0,0,1,3,1.48l1-1a5.11,5.11,0,0,0-9,3.38v0a5,5,0,0,0,5,5.09m-8.91-.22h1.46v-9.83H297Zm-.1-12h1.68v-1.62h-1.68Zm-7.35,12h1.46v-3.92c0-3,1.75-4.5,3.9-4.5h.11v-1.58a4.22,4.22,0,0,0-4,2.74v-2.57h-1.46Zm-10-5.46a3.38,3.38,0,0,1,3.19-3.34c2,0,3,1.56,3.13,3.34Zm3.42,5.68a5.05,5.05,0,0,0,4-1.84l-.91-.82a4,4,0,0,1-3.09,1.39A3.43,3.43,0,0,1,279.6,468h7.79a3.77,3.77,0,0,0,0-.48c0-2.87-1.68-5.19-4.58-5.19a4.84,4.84,0,0,0-4.71,5.11v0a4.88,4.88,0,0,0,4.9,5.11m-22-.22h1.47V466.8a2.85,2.85,0,0,1,2.73-3.1c1.56,0,2.53,1.09,2.53,2.93v5.78h1.46v-5.67a2.74,2.74,0,0,1,2.7-3c1.6,0,2.55,1.07,2.55,3v5.74h1.46v-6.08c0-2.44-1.39-4-3.65-4a3.94,3.94,0,0,0-3.46,2,3.33,3.33,0,0,0-3.15-2,3.58,3.58,0,0,0-3.17,1.87v-1.66H261Zm-11.81-4.89,3-6.76,3,6.76Zm-3.71,4.89h1.54l1.58-3.52h7.24l1.55,3.52H259L253,459h-1.41ZM231.09,467a3.38,3.38,0,0,1,3.19-3.34c2,0,3,1.56,3.14,3.34Zm3.42,5.68a5.09,5.09,0,0,0,4.05-1.84l-.91-.82a4.06,4.06,0,0,1-3.1,1.39,3.43,3.43,0,0,1-3.46-3.32h7.79a3.77,3.77,0,0,0,0-.48c0-2.87-1.67-5.19-4.58-5.19a4.84,4.84,0,0,0-4.71,5.11v0a4.88,4.88,0,0,0,4.9,5.11m-15.62-.22h1.47v-5.63a2.89,2.89,0,0,1,2.94-3.08c1.73,0,2.72,1.14,2.72,3v5.74h1.46v-6.1a3.59,3.59,0,0,0-3.76-3.94,3.72,3.72,0,0,0-3.36,1.92v-5.75h-1.47Zm-4,.17a3.73,3.73,0,0,0,1.77-.42V470.9a3,3,0,0,1-1.42.35,1.46,1.46,0,0,1-1.66-1.64v-5.74h3.12v-1.29h-3.12v-3h-1.46v3h-1.37v1.29h1.37v5.93a2.5,2.5,0,0,0,2.77,2.78m-14.64-.17h1.46v-8.54h3.1v-1.25h-3.12v-.8c0-1.4.57-2.09,1.71-2.09a4.94,4.94,0,0,1,1.42.25v-1.27a4.43,4.43,0,0,0-1.61-.25,2.91,2.91,0,0,0-2.11.76,3.48,3.48,0,0,0-.85,2.53v.85h-1.35v1.27h1.35Zm-7.93-1.09a3.69,3.69,0,0,1-3.63-3.82v0a3.62,3.62,0,0,1,3.59-3.8,3.71,3.71,0,0,1,3.65,3.83v0a3.62,3.62,0,0,1-3.61,3.78m0,1.31a5.09,5.09,0,0,0,5.15-5.13v0a5.12,5.12,0,0,0-10.24,0v0a5,5,0,0,0,5.09,5.09M178,472.41h1.46V458.54H178Zm-7.55-1c-1.33,0-2.47-.73-2.47-2v0c0-1.23,1-2,2.87-2a10.19,10.19,0,0,1,2.89.42v.95c0,1.55-1.48,2.66-3.29,2.66m-.28,1.15a4.27,4.27,0,0,0,3.55-1.69v1.49h1.41v-6a3.87,3.87,0,0,0-1-2.87,4.3,4.3,0,0,0-3.17-1.08,8,8,0,0,0-3.57.82l.43,1.19a7,7,0,0,1,3-.72c1.84,0,2.92.91,2.92,2.68v.34a10.61,10.61,0,0,0-3-.42c-2.49,0-4.2,1.11-4.2,3.18v0c0,2,1.85,3.05,3.67,3.05m-14.25-.2h1.46v-5.63a2.9,2.9,0,0,1,2.95-3.08c1.73,0,2.71,1.14,2.71,3v5.74h1.47v-6.1a3.59,3.59,0,0,0-3.76-3.94,3.73,3.73,0,0,0-3.37,1.92v-1.71h-1.46Zm-7.32,0h1.47v-3.92c0-3,1.75-4.5,3.89-4.5h.12v-1.58a4.2,4.2,0,0,0-4,2.74v-2.57h-1.47Zm-7.71.2a3.73,3.73,0,0,0,3.36-1.91v1.71h1.45v-9.83h-1.45v5.63a2.89,2.89,0,0,1-2.94,3.07c-1.73,0-2.72-1.14-2.72-3v-5.74h-1.46v6.1a3.59,3.59,0,0,0,3.76,3.93m-11-1.29a3.69,3.69,0,0,1-3.63-3.82v0a3.62,3.62,0,0,1,3.59-3.8,3.71,3.71,0,0,1,3.65,3.83v0a3.62,3.62,0,0,1-3.61,3.78m0,1.31A5.1,5.1,0,0,0,135,467.5v0a5.12,5.12,0,0,0-10.24,0v0a5,5,0,0,0,5.09,5.09m-11.55,0a4,4,0,0,0,2.92-1.11,4.78,4.78,0,0,0,1.22-3.49v-8.89h-1.52V468c0,2.11-1.1,3.19-2.6,3.19a3.42,3.42,0,0,1-3-1.9l-1.09.93a4.56,4.56,0,0,0,4.11,2.36m-15-1.83-3.57-8.19H98.09l4.47,9.79c-.59,1.38-1.14,1.84-2,1.84a3,3,0,0,1-1.53-.36l-.5,1.16a4.5,4.5,0,0,0,2.09.49c1.48,0,2.43-.74,3.27-2.77L108,462.58h-1.56Zm-8.68,1.64h1.46V458.54H94.6Zm-7.45,0h1.46v-3.92c0-3,1.75-4.5,3.9-4.5h.11v-1.58a4.21,4.21,0,0,0-4,2.74v-2.57H87.15Zm-7.41-1c-1.33,0-2.47-.73-2.47-2v0c0-1.23,1-2,2.87-2a10.25,10.25,0,0,1,2.89.42v.95c0,1.55-1.49,2.66-3.29,2.66m-.29,1.15A4.31,4.31,0,0,0,83,470.92v1.49h1.4v-6a3.91,3.91,0,0,0-1-2.87,4.34,4.34,0,0,0-3.18-1.08,8,8,0,0,0-3.57.82l.44,1.19a6.93,6.93,0,0,1,3-.72c1.84,0,2.93.91,2.93,2.68v.34a10.72,10.72,0,0,0-3-.42c-2.49,0-4.2,1.11-4.2,3.18v0c0,2,1.84,3.05,3.66,3.05m-7.41-.2h1.47V458.54H72Zm-7.5-1.09a3.69,3.69,0,0,1-3.63-3.82v0a3.62,3.62,0,0,1,3.59-3.8,3.71,3.71,0,0,1,3.65,3.83v0a3.62,3.62,0,0,1-3.61,3.78m0,1.31a5.09,5.09,0,0,0,5.15-5.13v0a5.12,5.12,0,0,0-10.24,0v0a5,5,0,0,0,5.09,5.09m-15.81-.22h1.47v-5.63a2.89,2.89,0,0,1,2.94-3.08c1.73,0,2.72,1.14,2.72,3v5.74h1.46v-6.1a3.59,3.59,0,0,0-3.76-3.94,3.72,3.72,0,0,0-3.36,1.92v-5.75H48.69Zm-6,.22a5,5,0,0,0,4-1.9l-.93-.87a4,4,0,0,1-3,1.46,3.67,3.67,0,0,1-3.61-3.82v0a3.62,3.62,0,0,1,3.51-3.8,4,4,0,0,1,3,1.48l1-1a5.12,5.12,0,0,0-9,3.38v0a5,5,0,0,0,5,5.09m-11.4,0c2.64,0,4.54-1.49,4.54-3.77v0c0-2-1.36-3.12-4.33-3.77s-3.61-1.33-3.61-2.58v0c0-1.2,1.1-2.15,2.83-2.15a5.83,5.83,0,0,1,3.84,1.45l.87-1.16a6.92,6.92,0,0,0-4.67-1.63c-2.53,0-4.37,1.53-4.37,3.62v0c0,2.19,1.41,3.18,4.47,3.84,2.79.59,3.45,1.29,3.45,2.53v0c0,1.31-1.17,2.26-3,2.26a6.36,6.36,0,0,1-4.56-1.88l-.93,1.1a7.78,7.78,0,0,0,5.43,2.13M9.31,467.52l3-6.76,3,6.76ZM5.6,472.41H7.14l1.58-3.52H16l1.56,3.52h1.61L13.07,459H11.66Z" transform="translate(-5.6 -1.49)"/><path class="cls-2" d="M305.65,412.92h3.72v-6.54h8.06V403h-8.06v-3.6h9.15V396H305.65Zm-11.54-3.13a5.14,5.14,0,0,1-5.12-5.32v-.05a5.05,5.05,0,0,1,5.07-5.26,5.14,5.14,0,0,1,5.12,5.31v0a5.06,5.06,0,0,1-5.07,5.27m-.05,3.42a8.74,8.74,0,0,0,9-8.74v-.05a9,9,0,0,0-18,.05v0a8.65,8.65,0,0,0,9,8.69m-29-.29h12.15v-3.38h-8.43V396H265.1ZM252,405.85l2.24-5.48,2.25,5.48Zm-6.67,7.07h3.79l1.55-3.79h7.15l1.54,3.79h3.89l-7.25-17h-3.42Zm-16.9,0h3.67V402.18l8.18,10.74h3.17V396h-3.67v10.41L231.83,396H228.4Zm-13-8.69v-4.85h3.7c1.81,0,2.92.82,2.92,2.41v0c0,1.42-1,2.39-2.85,2.39Zm-3.72,8.69h3.72v-5.4h2.92l3.63,5.4h4.34l-4.13-6a5.26,5.26,0,0,0,3.63-5.24v0a5.33,5.33,0,0,0-1.45-3.87,6.74,6.74,0,0,0-4.93-1.71h-7.73Zm-10.48.27c4.54,0,7.42-2.51,7.42-7.63V396h-3.72v9.68c0,2.68-1.38,4.06-3.65,4.06s-3.65-1.42-3.65-4.18V396h-3.71v9.66c0,5,2.77,7.51,7.31,7.51m-18.59-3.4a5.14,5.14,0,0,1-5.12-5.32v-.05a5.06,5.06,0,0,1,5.07-5.26,5.14,5.14,0,0,1,5.12,5.31v0a5.06,5.06,0,0,1-5.07,5.27m-.05,3.42a8.74,8.74,0,0,0,9-8.74v-.05a9,9,0,0,0-18,.05v0a8.65,8.65,0,0,0,9,8.69m-17.27,0a6.08,6.08,0,0,0,4.4-1.57,6.18,6.18,0,0,0,1.59-4.52V396h-3.81v10.89c0,2-.87,2.8-2.27,2.8a4.15,4.15,0,0,1-3.09-1.69l-2.35,2.61a6.91,6.91,0,0,0,5.53,2.54m-25.81-.25h12.87v-3.3h-9.18v-3.55h8v-3.31h-8v-3.43h9.06V396H139.46Zm-18.35,0h3.67V402.18L133,412.92h3.17V396h-3.68v10.41L124.53,396h-3.42Zm-7.22,0h3.71V396h-3.71Zm-14.4,0h12.15v-3.38h-8.43V396H99.49Zm-18.35,0h3.67V402.18L93,412.92h3.16V396H92.49v10.41L84.57,396H81.14ZM69.6,409.79a5.14,5.14,0,0,1-5.12-5.32v-.05a5.05,5.05,0,0,1,5.07-5.26,5.14,5.14,0,0,1,5.12,5.31v0a5.06,5.06,0,0,1-5.07,5.27m0,3.42a8.74,8.74,0,0,0,9-8.74v-.05a9,9,0,0,0-18,.05v0a8.65,8.65,0,0,0,9,8.69m-30.19-.29H52.23v-3.3H43.06v-3.55h8v-3.31h-8v-3.43h9V396H39.36Zm-17.62,0h3.71v-6.78h6.86v6.78H36V396H32.31v6.69H25.45V396H21.74Zm-11,0h3.72V399.45h5.14V396H5.6v3.43h5.15Z" transform="translate(-5.6 -1.49)"/><path class="cls-7" d="M166.89,496.17h1.46v-5.62a2.89,2.89,0,0,1,3-3.08c1.73,0,2.72,1.14,2.72,3v5.74h1.46v-6.1a3.59,3.59,0,0,0-3.76-3.93,3.73,3.73,0,0,0-3.37,1.92v-1.71h-1.46Zm-7.37-1.08a3.69,3.69,0,0,1-3.63-3.82v0a3.62,3.62,0,0,1,3.59-3.8,3.72,3.72,0,0,1,3.65,3.84v0a3.62,3.62,0,0,1-3.61,3.78m0,1.31a5.1,5.1,0,0,0,5.15-5.13v0a5.12,5.12,0,0,0-10.24,0v0a5,5,0,0,0,5.09,5.09m-9-.23H152v-9.82h-1.47Zm-.09-12h1.67v-1.61h-1.67Zm-4,12.14a3.65,3.65,0,0,0,1.77-.42v-1.25a3,3,0,0,1-1.43.34,1.45,1.45,0,0,1-1.65-1.63v-5.74h3.12v-1.29h-3.12v-3H143.6v3h-1.37v1.29h1.37v5.93a2.5,2.5,0,0,0,2.77,2.77m-10.6-1.12c-1.33,0-2.47-.72-2.47-2v0c0-1.24,1-2,2.87-2a10.25,10.25,0,0,1,2.89.42v.95c0,1.56-1.49,2.66-3.29,2.66m-.29,1.16a4.33,4.33,0,0,0,3.56-1.69v1.48h1.4v-6a3.88,3.88,0,0,0-1-2.87,4.35,4.35,0,0,0-3.18-1.09,8.17,8.17,0,0,0-3.57.82l.44,1.2a6.79,6.79,0,0,1,3-.72c1.84,0,2.93.91,2.93,2.68v.34a10.37,10.37,0,0,0-3-.42c-2.49,0-4.2,1.1-4.2,3.17v0c0,2,1.84,3.06,3.66,3.06m-7.41-.21h1.47v-9.82h-1.47Zm-.09-12h1.67v-1.61H128Zm-6.08,12.2a5.08,5.08,0,0,0,4-1.9l-.93-.88a4.05,4.05,0,0,1-3,1.47,3.66,3.66,0,0,1-3.61-3.82v0a3.62,3.62,0,0,1,3.51-3.8,4,4,0,0,1,3,1.48l1-1a5.11,5.11,0,0,0-9,3.38v0a5,5,0,0,0,5,5.09m-11.8-1.31a3.69,3.69,0,0,1-3.63-3.82v0a3.63,3.63,0,0,1,3.59-3.8,3.72,3.72,0,0,1,3.65,3.84v0a3.62,3.62,0,0,1-3.61,3.78m0,1.31a5.1,5.1,0,0,0,5.15-5.13v0a5.12,5.12,0,0,0-10.24,0v0a5,5,0,0,0,5.09,5.09m-10.31,0c2,0,3.49-1.08,3.49-2.94v0c0-1.77-1.63-2.36-3.15-2.81-1.31-.4-2.53-.76-2.53-1.7v0c0-.82.74-1.43,1.9-1.43a5.55,5.55,0,0,1,2.91.95l.66-1.1a6.63,6.63,0,0,0-3.53-1.08c-1.94,0-3.34,1.12-3.34,2.81v0c0,1.8,1.71,2.33,3.24,2.77,1.3.36,2.46.74,2.46,1.73v0c0,.95-.86,1.56-2,1.56a5.75,5.75,0,0,1-3.4-1.26l-.74,1.05a6.77,6.77,0,0,0,4.07,1.44m-8.9,0c2,0,3.5-1.08,3.5-2.94v0c0-1.77-1.63-2.36-3.15-2.81-1.31-.4-2.53-.76-2.53-1.7v0c0-.82.74-1.43,1.9-1.43a5.58,5.58,0,0,1,2.91.95l.66-1.1a6.68,6.68,0,0,0-3.53-1.08c-1.94,0-3.35,1.12-3.35,2.81v0c0,1.8,1.71,2.33,3.25,2.77,1.29.36,2.45.74,2.45,1.73v0c0,.95-.85,1.56-2,1.56a5.72,5.72,0,0,1-3.4-1.26l-.74,1.05a6.76,6.76,0,0,0,4.06,1.44m-15.06-5.07,3-6.77,3,6.77Zm-3.71,4.88h1.54l1.58-3.51h7.24L84,496.17h1.61l-6.06-13.39H78.14Zm-10.26.19c2,0,3.5-1.08,3.5-2.94v0c0-1.77-1.63-2.36-3.15-2.81-1.31-.4-2.53-.76-2.53-1.7v0c0-.82.74-1.43,1.9-1.43a5.58,5.58,0,0,1,2.91.95l.66-1.1a6.68,6.68,0,0,0-3.53-1.08c-1.94,0-3.35,1.12-3.35,2.81v0c0,1.8,1.71,2.33,3.25,2.77,1.29.36,2.45.74,2.45,1.73v0c0,.95-.85,1.56-2,1.56a5.72,5.72,0,0,1-3.4-1.26l-.74,1.05a6.76,6.76,0,0,0,4.06,1.44m-13.24-5.64a3.39,3.39,0,0,1,3.19-3.35c2,0,3,1.56,3.14,3.35ZM52,496.4a5.09,5.09,0,0,0,4-1.84l-.91-.82a4.1,4.1,0,0,1-3.1,1.39,3.43,3.43,0,0,1-3.46-3.33h7.79a3.54,3.54,0,0,0,0-.47c0-2.87-1.67-5.19-4.58-5.19a4.84,4.84,0,0,0-4.71,5.11v0A4.88,4.88,0,0,0,52,496.4m-10.13,0c2,0,3.5-1.08,3.5-2.94v0c0-1.77-1.63-2.36-3.15-2.81-1.32-.4-2.53-.76-2.53-1.7v0c0-.82.74-1.43,1.9-1.43a5.58,5.58,0,0,1,2.91.95l.66-1.1a6.68,6.68,0,0,0-3.53-1.08c-1.94,0-3.35,1.12-3.35,2.81v0c0,1.8,1.71,2.33,3.25,2.77,1.29.36,2.45.74,2.45,1.73v0c0,.95-.85,1.56-2,1.56a5.72,5.72,0,0,1-3.4-1.26l-.74,1.05a6.76,6.76,0,0,0,4.06,1.44m-10.56-.19h1.46v-3.91c0-3,1.75-4.51,3.9-4.51h.11v-1.57a4.2,4.2,0,0,0-4,2.73v-2.56H31.31Zm-7.71.21A3.75,3.75,0,0,0,27,494.46v1.71H28.4v-9.82H27V492A2.9,2.9,0,0,1,24,495.05c-1.73,0-2.71-1.14-2.71-3v-5.74H19.83v6.1a3.59,3.59,0,0,0,3.77,3.93m-18-.21H7.07V485.26l8.58,10.91h1.2v-13.3H15.39v10.66L7,482.87H5.6Z" transform="translate(-5.6 -1.49)"/></g></g></svg>