<svg width="76" height="76" viewBox="0 0 76 76" xmlns="http://www.w3.org/2000/svg"><title>rest-icon</title><g fill="none" fill-rule="evenodd"><circle fill="#238EC2" cx="37.819" cy="37.819" r="37.819"/><g fill="#FFF"><path d="M40.407 31.09H29.92a.802.802 0 0 1-.797-.807v-2.642c0-.162.049-.323.14-.456l6.043-8.876H29.92a.8.8 0 0 1-.797-.805v-2.642c0-.444.357-.806.797-.806h10.486c.44 0 .798.362.798.806v2.642c0 .161-.049.317-.137.45l-5.934 8.882h5.273c.44 0 .798.36.798.805v2.642a.803.803 0 0 1-.798.807m-9.687-1.611h8.89v-1.031h-5.977a.798.798 0 0 1-.704-.429.813.813 0 0 1 .043-.829l6.638-9.933v-1.59h-8.89v1.031h6.104a.808.808 0 0 1 .657 1.262L30.72 27.89v1.588M37.204 61.944h-14.17a.803.803 0 0 1-.8-.805v-3.572c0-.162.05-.32.142-.455l8.467-12.44h-7.81a.803.803 0 0 1-.798-.806v-3.57c0-.445.358-.807.798-.807h14.171c.44 0 .799.362.799.807v3.57c0 .16-.048.317-.138.45L29.55 56.764h7.654c.44 0 .799.36.799.804v3.572a.803.803 0 0 1-.799.805m-13.372-1.611h12.575v-1.96H28.05a.799.799 0 0 1-.704-.426.812.812 0 0 1 .043-.829l9.02-13.497V41.1H23.831v1.96h8.529c.296 0 .568.165.705.43a.81.81 0 0 1-.048.832l-9.186 13.494v2.516M53.019 51.845H42.533a.8.8 0 0 1-.797-.805v-2.642a.81.81 0 0 1 .14-.456l6.043-8.876h-5.386a.802.802 0 0 1-.797-.806v-2.64a.8.8 0 0 1 .797-.807H53.02a.8.8 0 0 1 .797.806v2.641c0 .16-.048.318-.136.45l-5.935 8.882h5.274c.44 0 .797.362.797.806v2.642a.8.8 0 0 1-.797.805m-9.689-1.61h8.89v-1.032h-5.976a.792.792 0 0 1-.703-.427.812.812 0 0 1 .042-.828l6.637-9.934v-1.59h-8.89v1.031h6.105c.296 0 .568.165.707.431a.812.812 0 0 1-.049.83l-6.763 9.932v1.587"/></g></g></svg>